<?xml version="1.0" encoding="utf-8"?>
<!-- Generator: Adobe Illustrator 24.1.1, SVG Export Plug-In . SVG Version: 6.00 Build 0)  -->
<svg version="1.1" id="Layer_1" xmlns="http://www.w3.org/2000/svg" xmlns:xlink="http://www.w3.org/1999/xlink" x="0px" y="0px"
	 viewBox="0 0 882 880" style="enable-background:new 0 0 882 880;" xml:space="preserve">
<style type="text/css">
	.st0{fill:#EACE26;stroke:#000000;stroke-width:16;stroke-miterlimit:10;}
	.st1{fill:none;stroke:#000000;stroke-width:5;stroke-miterlimit:10;}
	.st2{fill:#C41A1A;}
	.st3{fill:none;stroke:#EACE26;stroke-width:4;stroke-miterlimit:10;}
</style>
<g>
	<g id="Circle_398">
		<g>
			<path d="M858.97,462.89c7.25-7.37,14.51-14.74,21.76-22.11c-7.25-7.37-14.51-14.74-21.76-22.11c6.32-7.6,12.64-15.21,18.96-22.81
				c0.12-0.35,0.23-0.7,0.35-1.05c-7.96-6.43-15.91-12.87-23.87-19.31c5.62-8.66,11.23-17.32,16.85-25.97
				c-8.42-5.38-16.85-10.77-25.27-16.15c-1.2-3.16,10.73-23.42,12.99-28.08c-8.89-4.45-17.79-8.89-26.68-13.34
				c-0.87-4.84,8.17-24.14,10.53-29.49c-9.48-3.75-18.96-7.49-28.43-11.23c-0.23,0-0.47,0-0.7,0c2.69-9.83,5.38-19.66,8.07-29.48
				c0-0.12,0-0.24,0-0.35c-9.94-2.81-19.89-5.61-29.84-8.42c1.64-10.06,3.28-20.13,4.91-30.19c-9.94-1.64-19.89-3.27-29.84-4.91
				c-0.88-1.12,0.16-24.51,1.05-27.73c0-0.94,0-1.87,0-2.81c-10.3-0.59-20.59-1.17-30.89-1.76c-0.58-10.29-1.17-20.59-1.75-30.89
				c-10.18,0.59-20.36,1.17-30.54,1.76c-1.64-10.18-3.28-20.36-4.91-30.54c-10.06,1.64-20.13,3.28-30.19,4.92c-0.12,0-0.23,0-0.35,0
				c-2.69-9.83-5.38-19.66-8.08-29.49c0-0.23,0-0.47,0-0.7c-9.94,2.69-19.89,5.38-29.84,8.07c-3.63-9.59-7.25-19.19-10.88-28.78
				c-9.83,3.63-19.66,7.26-29.49,10.88c-4.45-9.01-8.89-18.02-13.34-27.03c-9.24,4.45-18.49,8.89-27.73,13.34
				c-5.5-8.42-11-16.85-16.5-25.27c-5.95,0.76-20.2,12.68-26.33,16.5c-6.32-7.96-12.64-15.91-18.95-23.87
				c-8.07,6.43-16.15,12.87-24.22,19.31C456.7,16.51,449.33,9.26,441.96,2c-7.37,7.26-14.74,14.51-22.11,21.76
				c-7.61-6.32-15.21-12.64-22.82-18.96c-0.35-0.12-0.7-0.23-1.05-0.35c-6.43,7.96-12.87,15.92-19.31,23.87
				c-8.66-5.62-17.32-11.23-25.98-16.85c-5.5,8.54-11,17.08-16.5,25.62c-9.24-4.56-18.49-9.13-27.73-13.69
				c-4.56,9.13-9.13,18.25-13.69,27.38c-9.71-3.63-19.43-7.26-29.14-10.88c-3.63,9.48-7.25,18.96-10.88,28.43
				c-9.94-2.57-19.89-5.15-29.84-7.72c-0.12,0-0.23,0-0.35,0c-2.69,9.83-5.38,19.66-8.08,29.49c0,0.23,0,0.47,0,0.7
				c-10.18-1.64-20.36-3.28-30.54-4.92c-1.64,9.94-3.28,19.89-4.91,29.84c-1.13,0.89-24.51-0.16-27.73-1.05c-0.93,0-1.87,0-2.81,0
				c-0.58,10.3-1.17,20.6-1.75,30.89c-10.29,0.59-20.59,1.17-30.89,1.76c0.58,10.18,1.17,20.36,1.75,30.54
				c-10.18,1.64-20.36,3.28-30.54,4.91c1.64,10.06,3.28,20.13,4.91,30.19c0,0.12,0,0.23,0,0.35c-10.06,2.69-20.13,5.38-30.19,8.07
				c2.69,9.83,5.38,19.66,8.08,29.49c-9.6,3.75-19.19,7.49-28.79,11.23c3.63,9.83,7.25,19.66,10.88,29.48
				c-9.01,4.45-18.02,8.89-27.03,13.34c4.45,9.36,8.89,18.72,13.34,28.08c-8.42,5.38-16.85,10.77-25.27,16.15
				c-0.12,0.23-0.23,0.47-0.35,0.7c5.61,8.54,11.23,17.08,16.85,25.62c-7.95,6.43-15.91,12.87-23.87,19.31
				c6.43,8.07,12.87,16.15,19.31,24.22c-7.25,7.37-14.51,14.74-21.76,22.11c7.25,7.26,14.51,14.51,21.76,21.76
				c-6.43,8.07-12.87,16.15-19.31,24.22c7.61,5.97,15.21,11.93,22.82,17.9c0.93,1.68-12.39,23.17-15.45,25.98
				c-0.12,0.35-0.23,0.7-0.35,1.05c8.42,5.38,16.85,10.77,25.27,16.15c0.64,4.94-10.69,22.58-13.34,28.08
				c9.13,4.56,18.26,9.13,27.38,13.69c-3.63,9.71-7.26,19.42-10.88,29.13c0,0.12,0,0.23,0,0.35c9.59,3.63,19.19,7.25,28.79,10.88
				c-2.69,9.83-5.39,19.66-8.08,29.49c10.06,2.81,20.13,5.62,30.19,8.43c-1.64,10.18-3.28,20.36-4.91,30.54
				c9.94,1.64,19.89,3.28,29.84,4.92c0.63,0.63-0.21,24.8-1.05,27.73c0,0.94,0,1.87,0,2.81c10.3,0.59,20.6,1.17,30.89,1.76
				c0.59,10.29,1.17,20.59,1.75,30.89c10.18-0.58,20.36-1.17,30.54-1.75c1.64,10.18,3.28,20.36,4.91,30.54
				c10.06-1.64,20.13-3.28,30.19-4.92c2.81,9.71,5.62,19.43,8.43,29.14c0,0.23,0,0.47,0,0.7c9.94-2.69,19.89-5.38,29.84-8.08
				c3.63,9.71,7.25,19.42,10.88,29.13c9.83-3.63,19.66-7.25,29.49-10.88c4.44,8.89,8.89,17.79,13.34,26.68
				c5.81-0.14,20.97-10.29,27.38-13.34c5.61,8.54,11.23,17.08,16.85,25.63c6.31-0.31,18.45-12.96,25.62-15.8
				c1.15-0.54,18.34,19.36,20.01,23.17c7.72-6.08,15.44-12.17,23.17-18.25c0.35-0.35,0.7-0.7,1.05-1.05
				c7.25,7.25,14.51,14.51,21.76,21.76c7.25-7.25,14.51-14.51,21.76-21.76c7.84,6.32,15.68,12.64,23.52,18.96
				c0.35,0.12,0.7,0.23,1.05,0.35c5.96-7.6,11.93-15.21,17.9-22.81c2.72-1.49,22.29,13.27,27.03,15.8
				c5.38-8.43,10.76-16.85,16.15-25.27c3.17-1.2,23.43,10.73,28.08,12.99c4.45-8.89,8.89-17.79,13.34-26.67
				c4.84-0.87,24.14,8.17,29.49,10.53c3.74-9.48,7.49-18.96,11.23-28.43c0-0.24,0-0.47,0-0.7c9.83,2.69,19.66,5.38,29.49,8.08
				c0.12,0,0.23,0,0.35,0c2.81-9.95,5.62-19.89,8.43-29.84c10.06,1.64,20.13,3.28,30.19,4.92c1.64-9.95,3.28-19.89,4.91-29.84
				c1.13-0.88,24.51,0.16,27.73,1.05c0.94,0,1.87,0,2.81,0c0.58-10.29,1.17-20.59,1.75-30.89c10.3-0.59,20.59-1.17,30.89-1.76
				c-0.58-10.18-1.17-20.36-1.75-30.54c10.18-1.64,20.36-3.28,30.54-4.92c-1.64-10.06-3.28-20.12-4.91-30.19
				c9.71-2.81,19.42-5.62,29.13-8.43c0.24,0,0.47,0,0.7,0c-2.69-9.94-5.38-19.89-8.07-29.84c9.71-3.63,19.42-7.26,29.13-10.88
				c-3.63-9.83-7.25-19.66-10.88-29.48c8.89-4.45,17.79-8.9,26.68-13.34c-0.14-5.81-10.29-20.97-13.34-27.38
				c8.54-5.62,17.08-11.23,25.62-16.85c-0.76-5.95-12.68-20.21-16.5-26.33c7.95-6.32,15.91-12.64,23.87-18.96
				C871.84,479.04,865.4,470.96,858.97,462.89z M838.52,420.22c-6.73,6.98-13.45,13.96-20.17,20.93
				c3.51,8.21,17.37,11.9,20.17,20.93c-7.62,5.96-15.23,11.93-22.84,17.89c6.09,7.61,12.18,15.22,18.27,22.84
				c-7.99,5.2-15.98,10.4-23.98,15.6c1.01,6.24,11.75,18.73,15.6,25.12c-8.63,4.31-17.25,8.63-25.88,12.94
				c-0.04,3.59,10.13,22.56,12.94,26.26c-9.13,3.55-18.27,7.11-27.4,10.66c3.55,9.26,7.1,18.52,10.66,27.78
				c-9.51,2.54-19.03,5.07-28.54,7.61c2.53,9.39,5.07,18.77,7.61,28.16c0,0.13,0,0.25,0,0.38c-9.64,1.52-19.28,3.05-28.92,4.57
				c1.52,9.64,3.05,19.28,4.57,28.92c-9.76,0.51-19.54,1.01-29.3,1.52c0.51,9.77,1.02,19.54,1.52,29.3
				c-8.76-0.51-17.51-1.02-26.26-1.52c-1.01,0-2.03,0-3.04,0c-0.51,9.77-1.02,19.54-1.52,29.3c-9.64-1.52-19.28-3.04-28.92-4.56
				c-1.52,9.64-3.05,19.28-4.57,28.92c-9.51-2.54-19.03-5.07-28.54-7.61c-2.54,9.26-5.07,18.52-7.61,27.78c0,0.25,0,0.51,0,0.76
				c-9.13-3.55-18.27-7.1-27.4-10.66c-3.42,9.01-6.85,18.02-10.28,27.02c-5.97-0.13-20.24-9.87-26.64-12.94
				c-4.31,8.63-8.62,17.25-12.94,25.88c-6.24-1.01-18.73-11.75-25.12-15.61c-5.07,7.99-10.15,15.99-15.22,23.98
				c-0.25,0.13-0.51,0.25-0.76,0.38c-7.23-5.96-14.46-11.92-21.69-17.89c-0.38-0.13-0.76-0.25-1.14-0.38
				c-5.96,7.61-11.93,15.22-17.89,22.84c-6.81-2.23-15.22-15.51-21.31-20.17c-6.85,6.72-13.7,13.45-20.55,20.17
				c-6.09-7.61-12.18-15.22-18.27-22.84c-7.49,6.09-14.97,12.18-22.45,18.27c-0.25,0-0.51,0-0.76,0c-5.2-7.99-10.4-15.98-15.6-23.98
				c-6.24,1.01-18.73,11.75-25.12,15.61c-4.32-8.63-8.63-17.25-12.94-25.88c-5.8,0.13-20.29,9.91-26.64,12.94
				c-3.43-9.14-6.85-18.27-10.28-27.41c-9.26,3.55-18.52,7.11-27.78,10.66c-2.53-9.26-5.07-18.52-7.61-27.78
				c-1.31-0.93-24.37,5.56-28.16,6.85c-0.13,0-0.25,0-0.38,0c-1.52-9.64-3.05-19.28-4.57-28.92c-9.64,1.52-19.29,3.05-28.92,4.56
				c-0.51-9.76-1.02-19.53-1.52-29.3c-9.76,0.51-19.53,1.02-29.3,1.52c0.5-8.75,1.01-17.51,1.52-26.26c0-1.02,0-2.03,0-3.05
				c-9.77-0.51-19.54-1.01-29.3-1.52c1.52-9.64,3.05-19.28,4.57-28.92c-9.77-1.52-19.54-3.05-29.3-4.57c0-0.13,0-0.25,0-0.38
				c2.54-9.39,5.07-18.77,7.61-28.16c-9.26-2.41-18.52-4.82-27.78-7.23c3.43-9.26,6.85-18.52,10.28-27.78
				c-9.26-3.55-18.52-7.1-27.78-10.65c4.44-8.76,8.88-17.51,13.32-26.26c-8.62-4.31-17.25-8.62-25.88-12.94
				c5.33-8.37,10.65-16.75,15.98-25.12c-7.99-5.07-15.98-10.15-23.98-15.22c-0.13-0.25-0.25-0.51-0.38-0.76
				c5.96-7.23,11.92-14.46,17.89-21.7c0.13-0.38,0.25-0.76,0.38-1.14c-7.61-5.96-15.22-11.93-22.83-17.89
				c1.18-3.77,8.33-10.57,11.8-12.18c2.92-3.05,5.84-6.09,8.76-9.13c-6.85-6.85-13.7-13.7-20.55-20.55
				c7.61-6.09,15.22-12.18,22.83-18.27c-6.09-7.48-12.18-14.97-18.27-22.45c0-0.26,0-0.51,0-0.76c7.99-5.2,15.99-10.4,23.98-15.61
				c-1.01-6.24-11.75-18.73-15.6-25.12c8.5-4.31,17-8.62,25.5-12.94c-0.13-5.76-9.91-20.31-12.94-26.64
				c9.26-3.42,18.52-6.85,27.78-10.28c-3.55-9.26-7.1-18.52-10.66-27.78c9.13-2.54,18.27-5.07,27.4-7.61
				c0.93-1.3-5.55-24.38-6.85-28.16c0-0.12,0-0.25,0-0.38c9.77-1.52,19.54-3.04,29.3-4.57c-1.52-9.64-3.05-19.28-4.57-28.92
				c9.77-0.51,19.54-1.01,29.3-1.52c-0.51-9.77-1.02-19.54-1.52-29.31c8.75,0.51,17.51,1.02,26.26,1.52c1.02,0,2.03,0,3.04,0
				c0.51-9.77,1.02-19.54,1.52-29.3c9.64,1.52,19.28,3.05,28.92,4.57c1.52-9.76,3.05-19.54,4.57-29.3c0.13,0,0.25,0,0.38,0
				c9.39,2.53,18.78,5.07,28.16,7.61c2.41-9.26,4.82-18.52,7.23-27.78c9.26,3.43,18.52,6.85,27.78,10.28
				c3.55-9.26,7.11-18.52,10.66-27.78c8.75,4.44,17.51,8.88,26.26,13.32c4.31-8.62,8.63-17.25,12.94-25.88
				c8.37,5.33,16.75,10.66,25.12,15.98c5.2-8.12,10.41-16.24,15.6-24.35c0.25,0,0.51,0,0.76,0c7.23,5.96,14.46,11.92,21.69,17.89
				c0.38,0.13,0.76,0.25,1.14,0.38c5.96-7.61,11.92-15.22,17.88-22.84c0.13,0,0.25,0,0.38,0c6.85,6.72,13.7,13.45,20.55,20.17
				c6.06-4.64,14.54-17.97,21.31-20.17c5.96,7.61,11.92,15.22,17.89,22.84c7.1-5.58,14.21-11.17,21.31-16.75
				c0.51-0.51,1.01-1.02,1.52-1.52c5.2,7.99,10.4,15.98,15.6,23.97c6.25-1.01,18.73-11.75,25.12-15.6c4.31,8.5,8.62,17,12.94,25.5
				c5.76-0.13,20.31-9.91,26.64-12.94c3.43,9.26,6.85,18.52,10.28,27.78c9.26-3.55,18.52-7.1,27.78-10.65
				c2.54,9.13,5.07,18.27,7.61,27.4c1.31,0.93,24.38-5.55,28.16-6.85c0.13,0,0.25,0,0.38,0c1.52,9.76,3.05,19.54,4.57,29.3
				c9.64-1.52,19.29-3.05,28.92-4.57c0.51,9.77,1.02,19.54,1.52,29.3c9.76-0.5,19.54-1.02,29.3-1.52
				c-0.51,8.76-1.02,17.51-1.52,26.26c0,1.01,0,2.03,0,3.05c9.77,0.51,19.54,1.01,29.3,1.52c-1.52,9.64-3.05,19.29-4.57,28.92
				c9.64,1.52,19.28,3.05,28.92,4.57c0,0.13,0,0.26,0,0.38c-2.53,9.26-5.07,18.52-7.61,27.78c9.26,2.66,18.52,5.33,27.78,7.99
				c0.25,0,0.51,0,0.76,0c-3.55,9.13-7.1,18.27-10.66,27.4c0,0.13,0,0.25,0,0.38c9.13,3.43,18.27,6.85,27.4,10.28
				c-4.44,8.75-8.88,17.51-13.32,26.26c8.63,4.31,17.25,8.63,25.88,12.94c-1.01,6.25-11.75,18.73-15.6,25.12
				c7.99,5.07,15.99,10.15,23.98,15.22c0.13,0.38,0.25,0.76,0.38,1.14c-6.09,7.61-12.18,15.22-18.27,22.84
				c7.61,5.96,15.22,11.92,22.84,17.88C838.52,419.97,838.52,420.1,838.52,420.22z"/>
		</g>
	</g>
	<ellipse class="st0" cx="441.04" cy="441.61" rx="412.54" ry="413.11"/>
	<circle class="st1" cx="440.24" cy="441.41" r="368.62"/>
</g>
<g>
	<g>
		<path d="M593.91,360.24c10.44,21.28,15.66,44.97,15.66,71.06c0,26.1-5.22,49.68-15.66,70.76c-10.45,21.08-23.89,37.84-40.35,50.28
			c-33.33,25.7-67.85,38.54-103.58,38.54h-75.27v68.05c0,9.24-0.3,16.17-0.9,20.78c-0.6,4.62-2.51,9.94-5.72,15.96
			c-5.63,10.84-21.28,16.26-46.97,16.26c-28.11,0-44.56-7.42-49.38-22.28c-2.41-6.82-3.61-17.26-3.61-31.31V324.1
			c0-9.23,0.3-16.16,0.9-20.78c0.6-4.61,2.5-9.94,5.72-15.96c5.62-10.84,21.27-16.26,46.97-16.26h128.87
			c35.32,0,69.65,12.85,102.98,38.54C570.02,322.1,583.47,338.96,593.91,360.24z M486.12,471.04c11.64-8.83,17.46-22.07,17.46-39.75
			c0-17.66-5.83-31.01-17.46-40.05c-11.65-9.03-23.69-13.55-36.13-13.55h-75.27v106.59h75.88
			C462.63,484.29,474.47,479.88,486.12,471.04z"/>
	</g>
	<g>
		<circle class="st2" cx="519.19" cy="149.48" r="27.84"/>
		<circle class="st2" cx="613.3" cy="178.31" r="27.84"/>
		<g>
			<circle class="st2" cx="687.69" cy="249.13" r="27.84"/>
			<circle class="st2" cx="718.87" cy="335.54" r="27.84"/>
			<path class="st2" d="M461.98,271.27l146.55,135.47l120.71-71.46l-22.97-5.66c0,0-65.67,30.67-84.95,6.24
				c-19.28-24.43,70.82-74.39,70.82-74.39l-12.85-16.29c0,0-32.58,25.71-65.41,41.04c-32.83,15.34-39.52-3.18-39.52-3.18
				s-17.05-18.26,41.17-98.57l-16.8-7.89c0,0-25.9,44.22-56.51,65.73c-30.61,21.51-25.2-11.84-25.2-11.84s-1.27-51.86,10.56-77.06
				c11.84-25.2-20.74,0.51-20.74,0.51L461.98,271.27z"/>
		</g>
	</g>
	<line class="st3" x1="430.72" y1="240.47" x2="634.26" y2="430.77"/>
</g>
</svg>
